<?xml version="1.0" encoding="UTF-8"?>
<svg version="1.1" xmlns="http://www.w3.org/2000/svg" width="600" height="600">
<path d="M0 0 C2.64525803 0.95523207 4.81123085 1.85699307 7.0625 3.5625 C9.1557465 5.11555386 10.48753268 5.42403728 13 6 C14.05380859 6.32097656 14.05380859 6.32097656 15.12890625 6.6484375 C21.04553827 8.4148798 26.9741701 9.59490938 33.0625 10.5625 C34.1299646 10.73434814 34.1299646 10.73434814 35.21899414 10.90966797 C37.80891687 11.30526878 40.40292921 11.65427705 43 12 C44.20454834 12.17281494 45.40909668 12.34562988 46.65014648 12.52368164 C59.48817591 14.24348988 72.29074543 14.33870713 85.2277832 14.31567383 C88.90020991 14.3125319 92.57181381 14.33599495 96.24414062 14.36132812 C135.69163172 14.58507096 135.69163172 14.58507096 173 3 C173.66 2.34 174.32 1.68 175 1 C177.125 1.375 177.125 1.375 179 2 C182.51042354 35.66245432 175.84088578 65.00642951 155 92 C152.11869192 95.45658632 149.11058297 98.74955268 146 102 C145.36578125 102.69738281 144.7315625 103.39476562 144.078125 104.11328125 C138.781207 109.74946466 132.69146524 114.12924473 126 118 C125.34 118 124.68 118 124 118 C123.67 118.66 123.34 119.32 123 120 C115.94608784 123.27503064 108.64432521 125.62641031 101 127 C100.27167969 127.18175781 99.54335938 127.36351562 98.79296875 127.55078125 C79.09859622 130.7184076 59.86838239 123.09059858 44 112 C41.70840112 110.14635113 39.52896655 108.26992108 37.41796875 106.21484375 C36.05806725 104.78312698 36.05806725 104.78312698 34 105 C32.54082037 103.41005885 31.15750645 101.75012428 29.8125 100.0625 C29.01328125 99.0621875 28.2140625 98.061875 27.390625 97.03125 C26.60171875 96.0309375 25.8128125 95.030625 25 94 C24.31421875 93.1440625 23.6284375 92.288125 22.921875 91.40625 C20.23949969 88.02510465 17.86013951 84.90399651 16 81 C15.25465791 79.68484928 14.50432847 78.3725171 13.75 77.0625 C5.06788825 61.28148511 -1.11642882 43.92645429 -1.1328125 25.703125 C-1.13376923 25.02828064 -1.13472595 24.35343628 -1.13571167 23.65814209 C-1.13638797 22.24295965 -1.13457235 20.82777402 -1.13037109 19.41259766 C-1.12498123 17.24244306 -1.13035181 15.07249227 -1.13671875 12.90234375 C-1.13605853 11.52343704 -1.13477852 10.14453046 -1.1328125 8.765625 C-1.13168457 7.51555664 -1.13055664 6.26548828 -1.12939453 4.97753906 C-1 2 -1 2 0 0 Z M13 18 C12.06257459 20.81227622 11.86529156 22.58746844 11.875 25.5 C11.87242187 26.2734375 11.86984375 27.046875 11.8671875 27.84375 C11.91854187 30.18447017 11.91854187 30.18447017 13 33 C12.95875 33.969375 12.9175 34.93875 12.875 35.9375 C12.75616643 41.45137752 14.54627937 46.7302627 16 52 C16.33 52 16.66 52 17 52 C17 41.11 17 30.22 17 19 C15.68 18.67 14.36 18.34 13 18 Z M85.0390625 24.25390625 C74.85072302 26.00100418 65.50018163 30.94681932 59 39 C58.39414062 39.74121094 57.78828125 40.48242188 57.1640625 41.24609375 C49.78841602 50.971366 47.65973379 60.09774889 47.5 72.125 C47.48138916 73.04313477 47.46277832 73.96126953 47.44360352 74.90722656 C47.53079277 84.35752553 50.43049883 92.25197504 56.9375 99.1796875 C61.26613686 103.00003745 66.24114504 105.98165795 71.65625 107.98046875 C74.53257473 109.23167001 75.72986191 111.12311271 77.640625 113.53515625 C80.72593787 116.85984684 84.24396334 117.80843236 88.578125 118.28125 C100.40974062 118.67784047 110.32719288 114.05087558 119.01171875 106.17578125 C125.35078179 99.23892837 128.70548254 90.96800838 131 82 C131.5878125 80.4840625 131.5878125 80.4840625 132.1875 78.9375 C134.59260071 70.24213589 132.23594642 62.23158633 129 54 C125.41368716 50.41368716 119.87463113 51.12827977 115 51 C111.63992936 51.18280177 108.33018603 51.52110157 105 52 C104.91363281 51.09378906 104.82726562 50.18757813 104.73828125 49.25390625 C103.63232833 39.66559881 101.53437121 33.44062024 95.5625 25.9375 C91.81008232 23.10030614 89.52539388 23.67300677 85.0390625 24.25390625 Z M17 53 C18 55 18 55 18 55 Z " fill="#FFFFFF" transform="translate(221,203)"/>
<path d="M0 0 C1.38232443 1.62626404 2.71937515 3.2925002 4 5 C4.99 5.495 4.99 5.495 6 6 C6 6.99 6 7.98 6 9 C4.88625 9.24234375 3.7725 9.4846875 2.625 9.734375 C-1.4266976 10.6207956 -5.47409632 11.52538194 -9.51953125 12.43994141 C-11.09960409 12.79670195 -12.68027536 13.15082962 -14.26171875 13.50146484 C-21.95830239 15.22057881 -29.12391604 17.08093784 -36.08203125 20.94921875 C-38 22 -38 22 -41 23 C-41.86850174 25.24875747 -41.86850174 25.24875747 -42 28 C-38.51872562 34.96254875 -29.47492518 37.2031284 -22.5625 39.625 C-14.33995481 42.20462202 -6.29981844 44.24977673 2.33203125 44.69140625 C5 45 5 45 7.80322266 45.91845703 C13.66724956 47.61808469 19.76137254 48.0242816 25.81640625 48.61328125 C26.82409656 48.71178596 26.82409656 48.71178596 27.85214424 48.81228065 C43.50106169 50.30650503 59.09105079 50.35697774 74.79656982 50.20599365 C78.45221346 50.17441569 82.1079291 50.16142 85.76367188 50.14648438 C92.8426102 50.11501254 99.92127706 50.06433832 107 50 C107.33 49.34 107.66 48.68 108 48 C108.55437744 48.02682861 109.10875488 48.05365723 109.67993164 48.08129883 C117.45339481 48.28460358 124.80488357 47.06129223 132.4375 45.6875 C134.30631836 45.36749023 134.30631836 45.36749023 136.21289062 45.04101562 C158.96546567 41.65412989 158.96546567 41.65412989 178 30 C178.47233383 27.05721601 178.47233383 27.05721601 177 24 C166.38423821 13.19320908 146.12731202 11.59097218 132 9 C132 6 132 6 134.375 3.4375 C135.24125 2.633125 136.1075 1.82875 137 1 C137.66 0.34 138.32 -0.32 139 -1 C145.07663637 -1.1762627 151.29771535 0.62561011 157.125 2.1875 C157.94395752 2.40599609 158.76291504 2.62449219 159.60668945 2.84960938 C173.24404824 6.61017826 189.14246671 11.28165032 197 24 C198.20532441 27.76207315 197.71464647 30.51067675 196.0234375 34.03515625 C191.96777608 40.18980034 184.9506823 45.76658259 177.7265625 47.56640625 C177.15679687 47.70949219 176.58703125 47.85257812 176 48 C175.67 48.66 175.34 49.32 175 50 C173.00073242 50.80615234 173.00073242 50.80615234 170.35546875 51.5859375 C169.37916504 51.87500977 168.40286133 52.16408203 167.39697266 52.46191406 C165.80828369 52.9138916 165.80828369 52.9138916 164.1875 53.375 C162.55240479 53.84244629 162.55240479 53.84244629 160.88427734 54.31933594 C136.97913265 61.01793458 112.71088632 63.59913989 88 65.25 C87.31134857 65.29715149 86.62269714 65.34430298 85.91317749 65.3928833 C83.96340281 65.52402004 82.01295665 65.6450554 80.0625 65.765625 C78.93972656 65.83555664 77.81695312 65.90548828 76.66015625 65.97753906 C74 66 74 66 72 65 C70.65503999 64.89283021 69.30516475 64.84387559 67.95605469 64.82641602 C67.12048035 64.81292618 66.28490601 64.79943634 65.42401123 64.78553772 C64.51580627 64.77509933 63.60760132 64.76466095 62.671875 64.75390625 C60.73697554 64.72091489 58.80207982 64.6877043 56.8671875 64.65429688 C53.82652893 64.60728894 50.78587919 64.56296933 47.74511719 64.52319336 C37.29139836 64.3797682 27.06311625 64.21212008 16.73876953 62.42993164 C13.10424101 61.85938388 9.6693232 61.85322707 6 62 C6 61.34 6 60.68 6 60 C5.39631592 59.95319092 4.79263184 59.90638184 4.1706543 59.8581543 C-2.09114501 59.31094821 -8.07943869 58.28189752 -14.1875 56.8125 C-15.09226074 56.59762939 -15.99702148 56.38275879 -16.92919922 56.16137695 C-23.9723574 54.41521656 -30.52531523 52.04575039 -37.1640625 49.13671875 C-39.9548944 47.81397405 -39.9548944 47.81397405 -43 48 C-43 47.34 -43 46.68 -43 46 C-43.72832031 45.72542969 -44.45664063 45.45085937 -45.20703125 45.16796875 C-49.84758355 43.22737415 -55.61748733 40.77635741 -57.953125 36.0859375 C-58.38103361 34.4088118 -58.69920292 32.7045168 -59 31 C-59.66 30.67 -60.32 30.34 -61 30 C-59.34690954 22.4061157 -56.47891659 18.26544509 -50 14 C-38.90048306 7.38346873 -27.57487728 3.74657199 -15 1 C-13.26363281 0.61328125 -13.26363281 0.61328125 -11.4921875 0.21875 C-3.64486528 -1.37164064 -3.64486528 -1.37164064 0 0 Z " fill="#FFFFFF" transform="translate(242,300)"/>
<path d="M0 0 C-0.64350033 4.73432388 -2.50692138 8.59065076 -4.625 12.8125 C-5.16024292 13.880448 -5.16024292 13.880448 -5.70629883 14.9699707 C-8.48706575 20.34735189 -11.62560562 24.78486755 -16 29 C-16.51046875 29.52207031 -17.0209375 30.04414063 -17.546875 30.58203125 C-18.68086919 31.73832308 -19.83732189 32.87255456 -21 34 C-20 33 -20 33 -18.3984375 31.72265625 C-9.86164751 24.71853319 -4.91326427 16.8388839 -1.23828125 6.46875 C0.16178991 3.67744094 1.10641995 3.02341358 4 2 C8.29150569 6.01463436 8.66948176 9.70055894 8.96875 15.296875 C9.05135773 22.44244403 7.18084044 27.73559252 4 34 C3.52691406 34.95390625 3.05382812 35.9078125 2.56640625 36.890625 C-2.57048527 46.49919907 -10.12495071 55.5003187 -20.609375 59.44140625 C-25.98587665 60.69768033 -31.84791473 61.37258434 -37.02734375 59.1171875 C-41.02342901 56.16653286 -41.92665231 52.65117332 -43 48 C-43.66 47.67 -44.32 47.34 -45 47 C-44.91621094 45.94039063 -44.83242188 44.88078125 -44.74609375 43.7890625 C-44.64293168 42.40106375 -44.54008337 41.01304165 -44.4375 39.625 C-44.38142578 38.92632812 -44.32535156 38.22765625 -44.26757812 37.5078125 C-43.88500096 33.63471135 -43.88500096 33.63471135 -45 30 C-44.34 29.67 -43.68 29.34 -43 29 C-42.36201793 27.59823658 -41.76543513 26.17756884 -41.1875 24.75 C-35.13477922 12.30431674 -24.01404362 4.15491527 -11.25 -0.3125 C-7.31653851 -1.14457839 -3.69075942 -1.84537971 0 0 Z M-23 34 C-24.1998278 35.42722659 -25.3845576 36.86715776 -26.5625 38.3125 C-27.22378906 39.11300781 -27.88507813 39.91351563 -28.56640625 40.73828125 C-29.03949219 41.48464844 -29.51257813 42.23101562 -30 43 C-29.67 43.99 -29.34 44.98 -29 46 C-27.8001722 44.57277341 -26.6154424 43.13284224 -25.4375 41.6875 C-24.77621094 40.88699219 -24.11492187 40.08648437 -23.43359375 39.26171875 C-22.96050781 38.51535156 -22.48742187 37.76898438 -22 37 C-22.33 36.01 -22.66 35.02 -23 34 Z " fill="#FFFFFF" transform="translate(342,258)"/>
<path d="M0 0 C-1 3 -1 3 -3.109375 4.2109375 C-4.41648437 4.78714844 -4.41648437 4.78714844 -5.75 5.375 C-12.56688464 8.63271235 -15.75423669 12.19935306 -19 19 C-19.66 19.33 -20.32 19.66 -21 20 C-21 22.64 -21 25.28 -21 28 C-21.33 28 -21.66 28 -22 28 C-22.73882539 39.45179356 -18.90895992 46.51333429 -11.49633789 55.03100586 C-8.56511231 58.32663575 -5.56143781 61.55359679 -2.55297852 64.77856445 C7.01930607 75.06111943 12.78615788 84.24085713 12.4140625 98.71875 C10.8517495 111.09934361 2.30602665 119.55902414 -7 127 C-11.35483871 130 -11.35483871 130 -15 130 C-12.97055248 125.67727677 -10.2947565 121.82050237 -7.65625 117.8515625 C-3.41101635 110.54255173 -3.12278219 103.27874307 -4 95 C-7.33531554 84.13044488 -15.68942267 77.08581135 -24.27734375 70.234375 C-29.53906203 65.91629343 -35.05411525 61.2600051 -38 55 C-38 54.34 -38 53.68 -38 53 C-38.66 52.67 -39.32 52.34 -40 52 C-43.16671847 40.64564759 -41.43662986 31.14095588 -36.01953125 21.12109375 C-29.23585695 10.63723347 -19.33142024 3.54493279 -7.25 0.25 C-4.81431887 -0.02063124 -2.44869687 -0.06996277 0 0 Z " fill="#FFFFFF" transform="translate(325,74)"/>
<path d="M0 0 C2.4375 0.375 2.4375 0.375 4.625 2.625 C7.67467077 7.25208668 8.69450159 9.72096509 8.4375 15.375 C9.4275 15.705 10.4175 16.035 11.4375 16.375 C10.7775 16.375 10.1175 16.375 9.4375 16.375 C9.9325 22.81 9.9325 22.81 10.4375 29.375 C8.7875 29.705 7.1375 30.035 5.4375 30.375 C2.3629644 31.1513932 2.3629644 31.1513932 0.4375 33.375 C-0.490625 33.9525 -1.41875 34.53 -2.375 35.125 C-10.86159028 41.11553432 -15.56403274 50.36774978 -17.5625 60.375 C-17.70772229 62.9698931 -17.69166205 65.50505743 -17.6015625 68.1015625 C-17.55274192 70.94292034 -17.97824321 73.59978027 -18.5625 76.375 C-26.04024578 75.3067506 -29.97916639 72.34752987 -34.5625 66.375 C-40.70142605 57.18385511 -39.84163381 43.74460652 -37.87890625 33.2578125 C-37.19377953 30.26161239 -36.44983759 27.31694665 -35.5625 24.375 C-34.9025 24.375 -34.2425 24.375 -33.5625 24.375 C-32.68591631 23.04259279 -31.81429239 21.70677746 -30.9609375 20.359375 C-24.06164584 10.56931868 -16.49612547 3.66034605 -4.875 0.6875 C-3.24870251 0.46773007 -1.6237844 0.23762699 0 0 Z M-2.5625 5.375 C-1.5625 7.375 -1.5625 7.375 -1.5625 7.375 Z M-3.5625 8.375 C-4.09317341 10.47670656 -4.61172857 12.58147598 -5.125 14.6875 C-5.41503906 15.85925781 -5.70507812 17.03101563 -6.00390625 18.23828125 C-6.82282433 21.39012112 -6.82282433 21.39012112 -5.5625 24.375 C-5.02998234 22.46154673 -4.51190517 20.5440705 -4 18.625 C-3.70996094 17.55765625 -3.41992188 16.4903125 -3.12109375 15.390625 C-2.59151506 12.53164073 -2.57879138 11.05902617 -3.5625 8.375 Z M-7.5625 24.375 C-6.5625 26.375 -6.5625 26.375 -6.5625 26.375 Z M-8.5625 26.375 C-7.5625 28.375 -7.5625 28.375 -7.5625 28.375 Z M-9.5625 28.375 C-8.5625 30.375 -8.5625 30.375 -8.5625 30.375 Z M-10.5625 30.375 C-9.5625 32.375 -9.5625 32.375 -9.5625 32.375 Z M-12.5625 33.375 C-11.5625 35.375 -11.5625 35.375 -11.5625 35.375 Z " fill="#FFFFFF" transform="translate(311.5625,229.625)"/>
<path d="M0 0 C8.64487059 1.04395316 15.74117556 2.7995329 22 9 C22.56332031 9.53753906 23.12664062 10.07507813 23.70703125 10.62890625 C29.62441129 16.83423666 31.14719869 23.38240555 31.5 31.8125 C31.20210194 42.88239185 27.02652278 50.93249389 19.390625 58.80859375 C10.11392268 67.31223754 -0.25652297 71.18932805 -12.8125 71.0625 C-13.97394531 71.05347656 -15.13539063 71.04445313 -16.33203125 71.03515625 C-17.65267578 71.01775391 -17.65267578 71.01775391 -19 71 C-19 69.68 -19 68.36 -19 67 C-18.34 67 -17.68 67 -17 67 C-16.6596875 66.0409375 -16.6596875 66.0409375 -16.3125 65.0625 C-14.51434174 60.86679739 -12.26095979 56.96099444 -10 53 C-7.03 53 -4.06 53 -1 53 C-0.67 52.34 -0.34 51.68 0 51 C1.32 51 2.64 51 4 51 C4 50.34 4 49.68 4 49 C4.7425 48.5875 5.485 48.175 6.25 47.75 C10.3070559 45.16823715 12.42797362 42.35814957 13.57421875 37.6328125 C14.39306458 31.83925812 14.10010173 28.00016408 11 23 C6.93649545 19.58296209 3.06322507 18.37378974 -2 17 C-1.85978195 14.35375716 -1.71310224 11.70815422 -1.5625 9.0625 C-1.52318359 8.30775391 -1.48386719 7.55300781 -1.44335938 6.77539062 C-1.11328125 1.11328125 -1.11328125 1.11328125 0 0 Z " fill="#FFFFFF" transform="translate(407,217)"/>
<path d="M0 0 C1.52905367 1.05590245 3.04955724 2.12426481 4.5625 3.203125 C19.30682189 13.13845449 41.34843934 13.87196241 58.296875 10.60546875 C65.97808342 8.70744393 74.32401171 6.48537176 80.234375 0.98046875 C82.921875 -1.20703125 82.921875 -1.20703125 86.171875 -1.70703125 C99.16852784 0.0258558 99.16852784 0.0258558 102.921875 4.79296875 C103.109375 7.16796875 103.109375 7.16796875 101.921875 9.79296875 C95.15565483 15.69541614 86.58991347 16.74893936 78.01464844 18.390625 C76.2844017 18.7232716 74.55933229 19.08272467 72.8359375 19.44921875 C52.63886083 23.57354672 31.22907644 22.4356063 10.921875 19.79296875 C9.97908691 19.67518066 9.03629883 19.55739258 8.06494141 19.43603516 C5.14040359 19.06788123 2.21846379 18.68378933 -0.703125 18.29296875 C-1.62279053 18.1746167 -2.54245605 18.05626465 -3.48999023 17.93432617 C-4.75951538 17.756073 -4.75951538 17.756073 -6.0546875 17.57421875 C-6.80830566 17.47173828 -7.56192383 17.36925781 -8.33837891 17.26367188 C-8.91249512 17.10833984 -9.48661133 16.95300781 -10.078125 16.79296875 C-10.408125 16.13296875 -10.738125 15.47296875 -11.078125 14.79296875 C-11.8 14.66921875 -12.521875 14.54546875 -13.265625 14.41796875 C-16.90560969 13.60908326 -19.17267073 12.10412555 -22.078125 9.79296875 C-23.203125 7.79296875 -23.203125 7.79296875 -23.078125 5.79296875 C-20.37777205 1.54955696 -16.22392529 0.55544792 -11.59375 -0.65625 C-7.26655456 -1.60366391 -3.99325546 -2.31939086 0 0 Z " fill="#FFFFFF" transform="translate(270.078125,322.20703125)"/>
<path d="M0 0 C8.3489397 0.5519122 16.68463073 0.56173408 25.04899597 0.54205322 C27.6940761 0.53676979 30.33898006 0.54199634 32.98405457 0.54840088 C41.97978113 0.55113886 50.94936539 0.39482549 59.93777466 0.02235413 C78.20892136 -0.72733074 96.41658206 -0.51148429 114.69444275 -0.19342041 C121.27523875 -0.08041897 127.85625358 0.01954859 134.43724442 0.12044144 C136.81719567 0.15736883 139.197117 0.19592733 141.57704163 0.23452759 C152.21710931 0.40169114 162.85164319 0.45629358 173.49313354 0.35246277 C174.4637825 0.34630447 175.43443146 0.34014618 176.43449402 0.33380127 C177.27261124 0.32498428 178.11072845 0.3161673 178.97424316 0.30708313 C180.98796082 0.41168213 180.98796082 0.41168213 182.98796082 1.41168213 C183.11296082 3.78668213 183.11296082 3.78668213 182.98796082 6.41168213 C180.4683847 8.93125824 179.23542599 8.8077267 175.73796082 9.09918213 C174.80467957 9.18554932 173.87139832 9.2719165 172.90983582 9.36090088 C169.98796082 9.41168213 169.98796082 9.41168213 167.26215363 8.92279243 C163.68241822 8.36398611 160.30216864 8.28577058 156.67900085 8.28469849 C155.96504701 8.2831385 155.25109317 8.28157851 154.51550436 8.27997124 C152.13455709 8.27599802 149.75367413 8.27913671 147.37272644 8.2822876 C145.6605882 8.28093183 143.94845026 8.27915091 142.23631287 8.27697754 C137.59124091 8.27242136 132.94619119 8.27418605 128.30111885 8.27735662 C123.42829962 8.27989286 118.55548227 8.27753886 113.68266296 8.27597046 C105.4914567 8.27415108 97.30025946 8.27654758 89.10905457 8.28131104 C79.66728568 8.28673868 70.22553844 8.28500099 60.78377008 8.27948463 C52.65950413 8.27492953 44.53524466 8.27431508 36.41097784 8.2769233 C31.56707245 8.27847479 26.72317718 8.27871125 21.87927246 8.27538681 C17.31562553 8.27247371 12.75200612 8.27454627 8.18836212 8.28028107 C6.5236287 8.281591 4.85889291 8.28124504 3.19416046 8.2790184 C-5.69924808 8.2682307 -14.42182945 8.47267541 -23.27709198 9.39279366 C-26.01203918 9.41168213 -26.01203918 9.41168213 -29.01203918 7.41168213 C-29.69953918 4.78668213 -29.69953918 4.78668213 -30.01203918 2.41168213 C-26.85311401 0.83221954 -23.41848844 0.70167016 -19.94953918 0.28668213 C-18.88896301 0.13779541 -18.88896301 0.13779541 -17.80696106 -0.01409912 C-11.81754326 -0.72601958 -5.99455439 -0.41323589 0 0 Z " fill="#FFFFFF" transform="translate(233.0120391845703,369.58831787109375)"/>
<path d="M0 0 C2.97 0 5.94 0 9 0 C9 0.33 9 0.66 9 1 C10.01629093 1.00358253 10.01629093 1.00358253 11.05311298 1.00723743 C27.52770225 1.06633571 44.00212571 1.14185232 60.47655201 1.23571491 C68.44342032 1.28070867 76.41024358 1.32011497 84.37719727 1.34643555 C91.32001128 1.36938676 98.26268312 1.40275228 105.20538443 1.44870156 C108.88259387 1.47267288 112.55966217 1.49137591 116.23694801 1.49761391 C120.33891561 1.50476723 124.44039096 1.5351677 128.54223633 1.56762695 C129.76574799 1.56619186 130.98925964 1.56475677 132.24984741 1.5632782 C133.36463974 1.57581635 134.47943207 1.58835449 135.62800598 1.60127258 C136.59865399 1.60588155 137.56930201 1.61049051 138.56936359 1.61523914 C141.38005097 2.06016068 142.26469499 2.80140684 144 5 C143.34 6.65 142.68 8.3 142 10 C126.97478521 10.09666835 111.95928838 9.7946806 96.9375 9.5 C94.41341428 9.45167507 91.88932576 9.40349689 89.36523438 9.35546875 C83.24345614 9.23866942 77.12171501 9.12006485 71 9 C70.67 9.66 70.34 10.32 70 11 C70 10.34 70 9.68 70 9 C69.04195717 9.0459304 69.04195717 9.0459304 68.06455994 9.0927887 C55.31182294 9.68660845 42.58410762 10.08862236 29.81640625 10.02734375 C28.64403412 10.02183502 27.47166199 10.01632629 26.26376343 10.01065063 C21.47580737 9.98321214 16.68798166 9.94777871 11.90014648 9.90405273 C8.33056168 9.87374742 4.76107888 9.85608075 1.19140625 9.83984375 C0.12668594 9.82638412 -0.93803436 9.8129245 -2.03501892 9.79905701 C-8.11555399 9.77884368 -13.68407137 10.32049228 -19.61952209 11.67189026 C-23.64033401 12.22609307 -25.66136318 11.2499509 -29 9 C-29.9375 6.3125 -29.9375 6.3125 -30 4 C-27.625 2.9375 -27.625 2.9375 -25 2 C-24.34 2.33 -23.68 2.66 -23 3 C-22.67 2.34 -22.34 1.68 -22 1 C-14.74 1 -7.48 1 0 1 C0 0.67 0 0.34 0 0 Z " fill="#FFFFFF" transform="translate(253,378)"/>
<path d="M0 0 C0.66 0 1.32 0 2 0 C2.00257813 1.23234375 2.00515625 2.4646875 2.0078125 3.734375 C2.20285947 15.20847765 3.08957799 24.62942402 11.2578125 33.43359375 C14.65035577 36.57421549 17.86091137 38.96509241 22 41 C26.05154546 44.71391667 29.60453916 48.88661721 33.23046875 53.01171875 C34.44659636 54.37818443 35.70651734 55.70651734 37 57 C37 57.99 37 58.98 37 60 C37.99 60.495 37.99 60.495 39 61 C39.47574438 63.54024004 39.84007547 66.00051464 40.125 68.5625 C40.21136719 69.27341797 40.29773438 69.98433594 40.38671875 70.71679688 C40.59934783 72.47689312 40.80072697 74.23834164 41 76 C40.34 76 39.68 76 39 76 C38.82984375 76.59167969 38.6596875 77.18335938 38.484375 77.79296875 C36.98383815 82.68567668 35.43444279 86.1076315 32 90 C31.505 91.485 31.505 91.485 31 93 C24.09090909 99 24.09090909 99 20 99 C20 97.68 20 96.36 20 95 C20.5775 94.46375 21.155 93.9275 21.75 93.375 C26.99928317 87.83408999 28.25 81.33492166 28.25 73.875 C28.18665786 71.91591816 28.11042591 69.95699259 28 68 C27.01 67.505 27.01 67.505 26 67 C25.649375 66.175 25.29875 65.35 24.9375 64.5 C21.52657536 57.4236041 14.97536229 52.41839689 8.375 48.5 C0.94247757 44.00301164 -4.56895561 37.43715407 -7 29 C-8.54342361 18.76300665 -5.08021923 10.18897017 -1 1 C-0.67 0.67 -0.34 0.34 0 0 Z " fill="#FFFFFF" transform="translate(277,108)"/>
<path d="M0 0 C0.33 0.66 0.66 1.32 1 2 C1.71142654 1.96774323 2.42285309 1.93548645 3.15583801 1.9022522 C24.21393522 0.98532728 45.19053273 0.98796934 66.26153564 1.33660889 C69.55597155 1.38874364 72.85050376 1.43179042 76.14506817 1.47490501 C79.33891054 1.51758829 82.5326681 1.56501322 85.72641945 1.61400223 C87.23948106 1.63680129 88.75256253 1.65832156 90.26566124 1.67850876 C92.35258962 1.70721905 94.43932166 1.74212368 96.52612305 1.77880859 C98.29900948 1.80664932 98.29900948 1.80664932 100.10771179 1.83505249 C103 2 103 2 106 3 C106.6875 5.0625 106.6875 5.0625 107 7 C105.25 9.0625 105.25 9.0625 102 11 C99.84437561 10.97512817 99.84437561 10.97512817 97.19555664 10.62939453 C87.36065847 9.63391959 77.49541952 9.85634319 67.62109375 9.8671875 C65.44173675 9.86651224 63.26237982 9.86554038 61.08302307 9.86428833 C56.52661417 9.86281961 51.97022496 9.86493781 47.41381836 9.86962891 C41.62716047 9.8753018 35.84054924 9.8720574 30.05389309 9.86605644 C25.55379396 9.86240803 21.05370552 9.86360927 16.55360603 9.86618423 C14.42296404 9.86684297 12.29232101 9.86606275 10.16168022 9.86370468 C-2.92706999 9.85240237 -15.93694598 10.16190868 -29 11 C-29.38063221 8.6739143 -29.71269945 6.33944736 -30 4 C-28.42503833 2.42503833 -26.77591482 2.78089027 -24.58984375 2.68359375 C-23.68169922 2.64169922 -22.77355469 2.59980469 -21.83789062 2.55664062 C-20.88076172 2.51732422 -19.92363281 2.47800781 -18.9375 2.4375 C-18.00744141 2.39431641 -17.07738281 2.35113281 -16.11914062 2.30664062 C-10.74044947 2.06851164 -5.38371049 1.95561134 0 2 C0 1.34 0 0.68 0 0 Z " fill="#FFFFFF" transform="translate(272,388)"/>
<path d="M0 0 C0.68827377 -0.00620865 1.37654755 -0.0124173 2.0856781 -0.01881409 C8.45403557 -0.02599148 15.82121925 0.18600025 21.62109375 3.0859375 C21.04764438 5.95318436 20.75964225 6.947389 18.62109375 9.0859375 C16.6991272 9.33317566 16.6991272 9.33317566 14.32666016 9.32885742 C12.99485214 9.33347237 12.99485214 9.33347237 11.63613892 9.33818054 C10.67468964 9.33099503 9.71324036 9.32380951 8.72265625 9.31640625 C7.73615082 9.31594803 6.74964539 9.31548981 5.73324585 9.3150177 C3.64344076 9.31199277 1.55363797 9.30409932 -0.53613281 9.29174805 C-3.73380538 9.27355188 -6.93118744 9.27123794 -10.12890625 9.27148438 C-12.15755459 9.26656684 -14.18620096 9.2607375 -16.21484375 9.25390625 C-17.65094498 9.25223701 -17.65094498 9.25223701 -19.11605835 9.25053406 C-20.01023468 9.24415421 -20.90441101 9.23777435 -21.82568359 9.23120117 C-22.6101889 9.22738937 -23.39469421 9.22357758 -24.20297241 9.21965027 C-26.38133646 9.08578816 -28.27225996 8.63174164 -30.37890625 8.0859375 C-32.50943934 8.07026664 -34.64077817 8.11856005 -36.76953125 8.20703125 C-38.02983154 8.25585449 -39.29013184 8.30467773 -40.58862305 8.35498047 C-41.24953949 8.3828363 -41.91045593 8.41069214 -42.59140015 8.43939209 C-45.3157477 8.55176913 -48.04063548 8.64483865 -50.76567078 8.73876953 C-55.78262522 8.91189712 -60.79774669 9.10457602 -65.8125 9.33203125 C-67.2304184 9.37663056 -68.64838354 9.41978798 -70.06640625 9.4609375 C-71.24589844 9.50992187 -72.42539062 9.55890625 -73.640625 9.609375 C-76.37890625 9.0859375 -76.37890625 9.0859375 -78.2734375 6.5625 C-78.82064453 5.33660156 -78.82064453 5.33660156 -79.37890625 4.0859375 C-72.68783425 -0.37477717 -62.48629461 0.88381616 -54.6640625 0.76953125 C-53.45431259 0.74875015 -52.24456268 0.72796906 -50.99815369 0.70655823 C-48.44403287 0.66347633 -45.8898773 0.62241321 -43.33569336 0.58325195 C-39.48477701 0.52410365 -35.63400165 0.45891593 -31.78320312 0.39257812 C-21.18962325 0.21479439 -10.59507632 0.04897873 0 0 Z " fill="#FFFFFF" transform="translate(338.37890625,398.9140625)"/>
<path d="M0 0 C-1 3 -1 3 -2.625 4.125 C-5.71328321 5.26278855 -8.74044621 5.59255578 -12 6 C-12.97525635 6.24665405 -12.97525635 6.24665405 -13.97021484 6.49829102 C-15.98770373 6.99696069 -17.90986936 7.26165623 -19.9765625 7.46484375 C-20.72526611 7.5417041 -21.47396973 7.61856445 -22.24536133 7.69775391 C-23.03064209 7.77687012 -23.81592285 7.85598633 -24.625 7.9375 C-30.48298942 8.55055222 -36.2159494 9.27335778 -41.95703125 10.6328125 C-44.33436763 11.06009667 -46.58966521 11.05889125 -49 11 C-49.33 11.66 -49.66 12.32 -50 13 C-51.85546875 13.45703125 -51.85546875 13.45703125 -54.1875 13.8125 C-57.66885941 14.4855996 -59.67006915 15.2490275 -62.25 17.6875 C-65 20 -65 20 -67.625 20.1875 C-70.95015472 18.52492264 -72.17924643 16.16945992 -74 13 C-68.58676122 6.40997018 -60.44037346 4.70674092 -52.5 2.8125 C-51.45066284 2.56209961 -51.45066284 2.56209961 -50.38012695 2.30664062 C-45.27574005 1.15240913 -40.20722055 0.48428303 -35 0 C-34.09685059 -0.08677002 -33.19370117 -0.17354004 -32.26318359 -0.26293945 C-29.32213017 -0.53976493 -26.3801021 -0.80268883 -23.4375 -1.0625 C-22.44814453 -1.15337891 -21.45878906 -1.24425781 -20.43945312 -1.33789062 C-4.16171852 -2.77447901 -4.16171852 -2.77447901 0 0 Z " fill="#FFFFFF" transform="translate(299,186)"/>
<path d="M0 0 C0.88228271 0.05760498 1.76456543 0.11520996 2.67358398 0.17456055 C16.18450848 1.21459894 35.46157405 2.72123854 46.0625 12 C46.625 14.5 46.625 14.5 46.0625 17 C43.875 18.875 43.875 18.875 41.0625 20 C38.25 19.6875 38.25 19.6875 36.0625 19 C36.0625 18.34 36.0625 17.68 36.0625 17 C30.00420205 14.84250962 23.99663639 13.17503217 17.6875 11.9375 C16.41277832 11.68371582 16.41277832 11.68371582 15.11230469 11.42480469 C6.15386802 9.71230795 -2.85691622 8.78068367 -11.9375 8 C-11.9375 4 -11.9375 4 -10.99609375 1.75 C-7.69138713 -1.05931417 -4.09191931 -0.3173863 0 0 Z " fill="#FFFFFF" transform="translate(347.9375,185)"/>
<path d="M0 0 C9.08455888 1.05289092 17.50722079 6.47467333 23.60546875 13.2109375 C29.06777773 20.21860561 30.87601817 28.14960443 31 37 C30.18710722 41.259368 29.04026597 45.16404253 27 49 C26.01 49.66 25.02 50.32 24 51 C23.04381028 47.83721862 22.98114459 45.16449371 23.125 41.875 C23.20170291 32.29992027 20.37816742 24.62139895 13.75 17.625 C12.8425 16.75875 11.935 15.8925 11 15 C2.08842105 6.43789474 2.08842105 6.43789474 0 2 C0 1.34 0 0.68 0 0 Z " fill="#FFFFFF" transform="translate(316,124)"/>
<path d="M0 0 C-0.375 2.4375 -0.375 2.4375 -1 5 C-4.25718634 6.62859317 -7.86098099 6.26454895 -11.4453125 6.3515625 C-12.28915497 6.37471527 -13.13299744 6.39786804 -14.00241089 6.42172241 C-15.79288653 6.46940373 -17.58342888 6.51463265 -19.37402344 6.55761719 C-22.09337554 6.62422539 -24.81223441 6.70220885 -27.53125 6.78125 C-29.27341969 6.82621607 -31.01560695 6.87050788 -32.7578125 6.9140625 C-33.5633255 6.93796051 -34.3688385 6.96185852 -35.19876099 6.98648071 C-40.24378871 7.09646785 -45.00625248 6.73741314 -50 6 C-50.38133299 4.0085944 -50.71325582 2.00720923 -51 0 C-49.01899511 -1.98100489 -45.1652224 -1.27916414 -42.44921875 -1.3515625 C-41.68003616 -1.37471527 -40.91085358 -1.39786804 -40.11836243 -1.42172241 C-38.47993856 -1.46948517 -36.84143891 -1.51470372 -35.20288086 -1.55761719 C-32.73583364 -1.62370522 -30.26938579 -1.70189658 -27.80273438 -1.78125 C-4.90719764 -2.45359882 -4.90719764 -2.45359882 0 0 Z " fill="#FFFFFF" transform="translate(335,411)"/>
<path d="M0 0 C3.44996492 1.44417136 4.7918824 2.6878236 6.875 5.8125 C8.1631115 9.46214924 8.06498945 11.31349806 7 15 C6.01 16.485 6.01 16.485 5 18 C4.34 18 3.68 18 3 18 C2.67 18.99 2.34 19.98 2 21 C-3.07767159 21 -6.724862 20.97021369 -10.875 17.8125 C-13.28646364 14.62085694 -14 12.98860061 -14 9 C-12.74365054 5.44034319 -11.62302702 3.50515704 -8.6875 1.125 C-5.47713606 -0.21887328 -3.45252804 -0.431566 0 0 Z " fill="#FFFFFF" transform="translate(332,100)"/>
<path d="M0 0 C3.51315304 2.79455355 6.12638119 5.52270361 7 10 C5.74653794 13.91706894 4.58314631 15.59827699 1.1875 17.9375 C-2.54084542 19.18028181 -4.28531588 19.26457332 -8 18 C-11.29493616 15.49298336 -12.81210532 14.12736809 -13.5 10 C-12.81681025 5.90086149 -11.60279506 3.1606447 -8.1875 0.6875 C-5.19277955 -0.25369786 -3.12650508 -0.44664358 0 0 Z " fill="#FFFFFF" transform="translate(287,160)"/>
<path d="M0 0 C2 1 2 1 2 1 Z " fill="#FFFFFF" transform="translate(303,407)"/>
<path d="M0 0 C2 1 2 1 2 1 Z " fill="#FFFFFF" transform="translate(380,388)"/>
<path d="" fill="#FFFFFF" transform="translate(0,0)"/>
<path d="M0 0 C2 1 2 1 2 1 Z " fill="#FFFFFF" transform="translate(394,378)"/>
<path d="M0 0 C2 1 2 1 2 1 Z " fill="#FFFFFF" transform="translate(250,378)"/>
<path d="M0 0 C2 1 2 1 2 1 Z " fill="#FFFFFF" transform="translate(245,378)"/>
<path d="M0 0 C2 1 2 1 2 1 Z " fill="#FFFFFF" transform="translate(222,378)"/>
<path d="M0 0 C2 1 2 1 2 1 Z " fill="#FFFFFF" transform="translate(205,368)"/>
<path d="M0 0 C2 1 2 1 2 1 Z " fill="#FFFFFF" transform="translate(349,364)"/>
<path d="" fill="#FFFFFF" transform="translate(0,0)"/>
<path d="" fill="#FFFFFF" transform="translate(0,0)"/>
<path d="" fill="#FFFFFF" transform="translate(0,0)"/>
<path d="" fill="#FFFFFF" transform="translate(0,0)"/>
<path d="" fill="#FFFFFF" transform="translate(0,0)"/>
<path d="M0 0 C2 1 2 1 2 1 Z " fill="#FFFFFF" transform="translate(434,317)"/>
<path d="" fill="#FFFFFF" transform="translate(0,0)"/>
<path d="" fill="#FFFFFF" transform="translate(0,0)"/>
<path d="M0 0 C2 1 2 1 2 1 Z " fill="#FFFFFF" transform="translate(332,256)"/>
<path d="M0 0 C2 1 2 1 2 1 Z " fill="#FFFFFF" transform="translate(273,256)"/>
<path d="" fill="#FFFFFF" transform="translate(0,0)"/>
<path d="M0 0 C2 1 2 1 2 1 Z " fill="#FFFFFF" transform="translate(234,231)"/>
<path d="M0 0 C2 1 2 1 2 1 Z " fill="#FFFFFF" transform="translate(353,197)"/>
<path d="M0 0 C2 1 2 1 2 1 Z " fill="#FFFFFF" transform="translate(273,194)"/>
<path d="M0 0 C2 1 2 1 2 1 Z " fill="#FFFFFF" transform="translate(272,163)"/>
<path d="M0 0 C2 1 2 1 2 1 Z " fill="#FFFFFF" transform="translate(314,129)"/>
<path d="M0 0 C2 1 2 1 2 1 Z " fill="#FFFFFF" transform="translate(337,118)"/>
<path d="" fill="#FFFFFF" transform="translate(0,0)"/>
<path d="" fill="#FFFFFF" transform="translate(0,0)"/>
<path d="M0 0 C2 1 2 1 2 1 Z " fill="#FFFFFF" transform="translate(335,100)"/>
<path d="" fill="#FFFFFF" transform="translate(0,0)"/>
<path d="" fill="#FFFFFF" transform="translate(0,0)"/>
<path d="" fill="#FFFFFF" transform="translate(0,0)"/>
<path d="" fill="#FFFFFF" transform="translate(0,0)"/>
<path d="" fill="#FFFFFF" transform="translate(0,0)"/>
<path d="" fill="#FFFFFF" transform="translate(0,0)"/>
<path d="" fill="#FFFFFF" transform="translate(0,0)"/>
<path d="" fill="#FFFFFF" transform="translate(0,0)"/>
<path d="" fill="#FFFFFF" transform="translate(0,0)"/>
<path d="" fill="#FFFFFF" transform="translate(0,0)"/>
<path d="" fill="#FFFFFF" transform="translate(0,0)"/>
<path d="" fill="#FFFFFF" transform="translate(0,0)"/>
<path d="" fill="#FFFFFF" transform="translate(0,0)"/>
<path d="" fill="#FFFFFF" transform="translate(0,0)"/>
<path d="" fill="#FFFFFF" transform="translate(0,0)"/>
<path d="" fill="#FFFFFF" transform="translate(0,0)"/>
<path d="" fill="#FFFFFF" transform="translate(0,0)"/>
<path d="" fill="#FFFFFF" transform="translate(0,0)"/>
<path d="" fill="#FFFFFF" transform="translate(0,0)"/>
<path d="" fill="#FFFFFF" transform="translate(0,0)"/>
<path d="" fill="#FFFFFF" transform="translate(0,0)"/>
<path d="" fill="#FFFFFF" transform="translate(0,0)"/>
<path d="" fill="#FFFFFF" transform="translate(0,0)"/>
<path d="" fill="#FFFFFF" transform="translate(0,0)"/>
<path d="" fill="#FFFFFF" transform="translate(0,0)"/>
<path d="" fill="#FFFFFF" transform="translate(0,0)"/>
<path d="" fill="#FFFFFF" transform="translate(0,0)"/>
<path d="" fill="#FFFFFF" transform="translate(0,0)"/>
<path d="" fill="#FFFFFF" transform="translate(0,0)"/>
<path d="" fill="#FFFFFF" transform="translate(0,0)"/>
<path d="" fill="#FFFFFF" transform="translate(0,0)"/>
<path d="" fill="#FFFFFF" transform="translate(0,0)"/>
<path d="" fill="#FFFFFF" transform="translate(0,0)"/>
<path d="" fill="#FFFFFF" transform="translate(0,0)"/>
<path d="" fill="#FFFFFF" transform="translate(0,0)"/>
<path d="" fill="#FFFFFF" transform="translate(0,0)"/>
<path d="" fill="#FFFFFF" transform="translate(0,0)"/>
<path d="" fill="#FFFFFF" transform="translate(0,0)"/>
<path d="" fill="#FFFFFF" transform="translate(0,0)"/>
<path d="" fill="#FFFFFF" transform="translate(0,0)"/>
<path d="" fill="#FFFFFF" transform="translate(0,0)"/>
<path d="" fill="#FFFFFF" transform="translate(0,0)"/>
<path d="" fill="#FFFFFF" transform="translate(0,0)"/>
<path d="" fill="#FFFFFF" transform="translate(0,0)"/>
<path d="" fill="#FFFFFF" transform="translate(0,0)"/>
<path d="" fill="#FFFFFF" transform="translate(0,0)"/>
<path d="" fill="#FFFFFF" transform="translate(0,0)"/>
<path d="" fill="#FFFFFF" transform="translate(0,0)"/>
<path d="" fill="#FFFFFF" transform="translate(0,0)"/>
<path d="" fill="#FFFFFF" transform="translate(0,0)"/>
<path d="" fill="#FFFFFF" transform="translate(0,0)"/>
<path d="" fill="#FFFFFF" transform="translate(0,0)"/>
<path d="" fill="#FFFFFF" transform="translate(0,0)"/>
<path d="" fill="#FFFFFF" transform="translate(0,0)"/>
<path d="" fill="#FFFFFF" transform="translate(0,0)"/>
<path d="" fill="#FFFFFF" transform="translate(0,0)"/>
<path d="" fill="#FFFFFF" transform="translate(0,0)"/>
<path d="" fill="#FFFFFF" transform="translate(0,0)"/>
<path d="" fill="#FFFFFF" transform="translate(0,0)"/>
<path d="" fill="#FFFFFF" transform="translate(0,0)"/>
<path d="" fill="#FFFFFF" transform="translate(0,0)"/>
<path d="" fill="#FFFFFF" transform="translate(0,0)"/>
<path d="" fill="#FFFFFF" transform="translate(0,0)"/>
<path d="" fill="#FFFFFF" transform="translate(0,0)"/>
<path d="" fill="#FFFFFF" transform="translate(0,0)"/>
<path d="" fill="#FFFFFF" transform="translate(0,0)"/>
<path d="" fill="#FFFFFF" transform="translate(0,0)"/>
<path d="" fill="#FFFFFF" transform="translate(0,0)"/>
<path d="" fill="#FFFFFF" transform="translate(0,0)"/>
<path d="" fill="#FFFFFF" transform="translate(0,0)"/>
<path d="" fill="#FFFFFF" transform="translate(0,0)"/>
<path d="" fill="#FFFFFF" transform="translate(0,0)"/>
<path d="" fill="#FFFFFF" transform="translate(0,0)"/>
<path d="" fill="#FFFFFF" transform="translate(0,0)"/>
<path d="" fill="#FFFFFF" transform="translate(0,0)"/>
<path d="" fill="#FFFFFF" transform="translate(0,0)"/>
<path d="" fill="#FFFFFF" transform="translate(0,0)"/>
<path d="" fill="#FFFFFF" transform="translate(0,0)"/>
<path d="" fill="#FFFFFF" transform="translate(0,0)"/>
<path d="" fill="#FFFFFF" transform="translate(0,0)"/>
<path d="" fill="#FFFFFF" transform="translate(0,0)"/>
<path d="" fill="#FFFFFF" transform="translate(0,0)"/>
<path d="" fill="#FFFFFF" transform="translate(0,0)"/>
<path d="" fill="#FFFFFF" transform="translate(0,0)"/>
<path d="" fill="#FFFFFF" transform="translate(0,0)"/>
<path d="" fill="#FFFFFF" transform="translate(0,0)"/>
<path d="" fill="#FFFFFF" transform="translate(0,0)"/>
<path d="" fill="#FFFFFF" transform="translate(0,0)"/>
<path d="" fill="#FFFFFF" transform="translate(0,0)"/>
<path d="" fill="#FFFFFF" transform="translate(0,0)"/>
<path d="" fill="#FFFFFF" transform="translate(0,0)"/>
<path d="" fill="#FFFFFF" transform="translate(0,0)"/>
<path d="" fill="#FFFFFF" transform="translate(0,0)"/>
<path d="" fill="#FFFFFF" transform="translate(0,0)"/>
<path d="" fill="#FFFFFF" transform="translate(0,0)"/>
<path d="" fill="#FFFFFF" transform="translate(0,0)"/>
<path d="" fill="#FFFFFF" transform="translate(0,0)"/>
<path d="" fill="#FFFFFF" transform="translate(0,0)"/>
<path d="" fill="#FFFFFF" transform="translate(0,0)"/>
<path d="" fill="#FFFFFF" transform="translate(0,0)"/>
<path d="" fill="#FFFFFF" transform="translate(0,0)"/>
<path d="" fill="#FFFFFF" transform="translate(0,0)"/>
<path d="" fill="#FFFFFF" transform="translate(0,0)"/>
<path d="" fill="#FFFFFF" transform="translate(0,0)"/>
<path d="" fill="#FFFFFF" transform="translate(0,0)"/>
<path d="" fill="#FFFFFF" transform="translate(0,0)"/>
<path d="" fill="#FFFFFF" transform="translate(0,0)"/>
<path d="" fill="#FFFFFF" transform="translate(0,0)"/>
<path d="" fill="#FFFFFF" transform="translate(0,0)"/>
<path d="" fill="#FFFFFF" transform="translate(0,0)"/>
<path d="" fill="#FFFFFF" transform="translate(0,0)"/>
<path d="" fill="#FFFFFF" transform="translate(0,0)"/>
<path d="" fill="#FFFFFF" transform="translate(0,0)"/>
<path d="" fill="#FFFFFF" transform="translate(0,0)"/>
<path d="" fill="#FFFFFF" transform="translate(0,0)"/>
<path d="" fill="#FFFFFF" transform="translate(0,0)"/>
<path d="" fill="#FFFFFF" transform="translate(0,0)"/>
<path d="" fill="#FFFFFF" transform="translate(0,0)"/>
<path d="" fill="#FFFFFF" transform="translate(0,0)"/>
<path d="" fill="#FFFFFF" transform="translate(0,0)"/>
<path d="" fill="#FFFFFF" transform="translate(0,0)"/>
<path d="" fill="#FFFFFF" transform="translate(0,0)"/>
<path d="" fill="#FFFFFF" transform="translate(0,0)"/>
<path d="" fill="#FFFFFF" transform="translate(0,0)"/>
<path d="" fill="#FFFFFF" transform="translate(0,0)"/>
<path d="" fill="#FFFFFF" transform="translate(0,0)"/>
<path d="" fill="#FFFFFF" transform="translate(0,0)"/>
<path d="" fill="#FFFFFF" transform="translate(0,0)"/>
<path d="" fill="#FFFFFF" transform="translate(0,0)"/>
<path d="" fill="#FFFFFF" transform="translate(0,0)"/>
<path d="" fill="#FFFFFF" transform="translate(0,0)"/>
<path d="" fill="#FFFFFF" transform="translate(0,0)"/>
<path d="" fill="#FFFFFF" transform="translate(0,0)"/>
<path d="" fill="#FFFFFF" transform="translate(0,0)"/>
<path d="" fill="#FFFFFF" transform="translate(0,0)"/>
<path d="" fill="#FFFFFF" transform="translate(0,0)"/>
<path d="" fill="#FFFFFF" transform="translate(0,0)"/>
<path d="" fill="#FFFFFF" transform="translate(0,0)"/>
<path d="" fill="#FFFFFF" transform="translate(0,0)"/>
<path d="" fill="#FFFFFF" transform="translate(0,0)"/>
<path d="" fill="#FFFFFF" transform="translate(0,0)"/>
<path d="" fill="#FFFFFF" transform="translate(0,0)"/>
<path d="" fill="#FFFFFF" transform="translate(0,0)"/>
<path d="" fill="#FFFFFF" transform="translate(0,0)"/>
<path d="" fill="#FFFFFF" transform="translate(0,0)"/>
<path d="" fill="#FFFFFF" transform="translate(0,0)"/>
<path d="" fill="#FFFFFF" transform="translate(0,0)"/>
<path d="" fill="#FFFFFF" transform="translate(0,0)"/>
<path d="" fill="#FFFFFF" transform="translate(0,0)"/>
<path d="" fill="#FFFFFF" transform="translate(0,0)"/>
<path d="" fill="#FFFFFF" transform="translate(0,0)"/>
<path d="" fill="#FFFFFF" transform="translate(0,0)"/>
<path d="" fill="#FFFFFF" transform="translate(0,0)"/>
<path d="" fill="#FFFFFF" transform="translate(0,0)"/>
<path d="" fill="#FFFFFF" transform="translate(0,0)"/>
<path d="" fill="#FFFFFF" transform="translate(0,0)"/>
<path d="" fill="#FFFFFF" transform="translate(0,0)"/>
<path d="" fill="#FFFFFF" transform="translate(0,0)"/>
<path d="" fill="#FFFFFF" transform="translate(0,0)"/>
<path d="" fill="#FFFFFF" transform="translate(0,0)"/>
<path d="" fill="#FFFFFF" transform="translate(0,0)"/>
<path d="" fill="#FFFFFF" transform="translate(0,0)"/>
<path d="" fill="#FFFFFF" transform="translate(0,0)"/>
<path d="" fill="#FFFFFF" transform="translate(0,0)"/>
<path d="" fill="#FFFFFF" transform="translate(0,0)"/>
<path d="" fill="#FFFFFF" transform="translate(0,0)"/>
<path d="" fill="#FFFFFF" transform="translate(0,0)"/>
<path d="" fill="#FFFFFF" transform="translate(0,0)"/>
<path d="" fill="#FFFFFF" transform="translate(0,0)"/>
<path d="" fill="#FFFFFF" transform="translate(0,0)"/>
<path d="" fill="#FFFFFF" transform="translate(0,0)"/>
<path d="" fill="#FFFFFF" transform="translate(0,0)"/>
<path d="" fill="#FFFFFF" transform="translate(0,0)"/>
<path d="" fill="#FFFFFF" transform="translate(0,0)"/>
<path d="" fill="#FFFFFF" transform="translate(0,0)"/>
<path d="" fill="#FFFFFF" transform="translate(0,0)"/>
<path d="" fill="#FFFFFF" transform="translate(0,0)"/>
<path d="" fill="#FFFFFF" transform="translate(0,0)"/>
<path d="" fill="#FFFFFF" transform="translate(0,0)"/>
<path d="" fill="#FFFFFF" transform="translate(0,0)"/>
<path d="" fill="#FFFFFF" transform="translate(0,0)"/>
<path d="" fill="#FFFFFF" transform="translate(0,0)"/>
<path d="" fill="#FFFFFF" transform="translate(0,0)"/>
<path d="" fill="#FFFFFF" transform="translate(0,0)"/>
<path d="" fill="#FFFFFF" transform="translate(0,0)"/>
<path d="" fill="#FFFFFF" transform="translate(0,0)"/>
<path d="" fill="#FFFFFF" transform="translate(0,0)"/>
<path d="" fill="#FFFFFF" transform="translate(0,0)"/>
<path d="" fill="#FFFFFF" transform="translate(0,0)"/>
<path d="" fill="#FFFFFF" transform="translate(0,0)"/>
<path d="" fill="#FFFFFF" transform="translate(0,0)"/>
<path d="" fill="#FFFFFF" transform="translate(0,0)"/>
<path d="" fill="#FFFFFF" transform="translate(0,0)"/>
<path d="" fill="#FFFFFF" transform="translate(0,0)"/>
<path d="" fill="#FFFFFF" transform="translate(0,0)"/>
<path d="" fill="#FFFFFF" transform="translate(0,0)"/>
<path d="" fill="#FFFFFF" transform="translate(0,0)"/>
<path d="" fill="#FFFFFF" transform="translate(0,0)"/>
<path d="" fill="#FFFFFF" transform="translate(0,0)"/>
<path d="" fill="#FFFFFF" transform="translate(0,0)"/>
<path d="" fill="#FFFFFF" transform="translate(0,0)"/>
<path d="" fill="#FFFFFF" transform="translate(0,0)"/>
<path d="" fill="#FFFFFF" transform="translate(0,0)"/>
<path d="" fill="#FFFFFF" transform="translate(0,0)"/>
<path d="" fill="#FFFFFF" transform="translate(0,0)"/>
<path d="" fill="#FFFFFF" transform="translate(0,0)"/>
<path d="" fill="#FFFFFF" transform="translate(0,0)"/>
<path d="" fill="#FFFFFF" transform="translate(0,0)"/>
<path d="" fill="#FFFFFF" transform="translate(0,0)"/>
<path d="" fill="#FFFFFF" transform="translate(0,0)"/>
<path d="" fill="#FFFFFF" transform="translate(0,0)"/>
<path d="" fill="#FFFFFF" transform="translate(0,0)"/>
<path d="" fill="#FFFFFF" transform="translate(0,0)"/>
<path d="" fill="#FFFFFF" transform="translate(0,0)"/>
<path d="" fill="#FFFFFF" transform="translate(0,0)"/>
<path d="" fill="#FFFFFF" transform="translate(0,0)"/>
<path d="" fill="#FFFFFF" transform="translate(0,0)"/>
<path d="" fill="#FFFFFF" transform="translate(0,0)"/>
<path d="" fill="#FFFFFF" transform="translate(0,0)"/>
<path d="" fill="#FFFFFF" transform="translate(0,0)"/>
<path d="" fill="#FFFFFF" transform="translate(0,0)"/>
<path d="" fill="#FFFFFF" transform="translate(0,0)"/>
<path d="" fill="#FFFFFF" transform="translate(0,0)"/>
<path d="" fill="#FFFFFF" transform="translate(0,0)"/>
<path d="" fill="#FFFFFF" transform="translate(0,0)"/>
<path d="" fill="#FFFFFF" transform="translate(0,0)"/>
<path d="" fill="#FFFFFF" transform="translate(0,0)"/>
<path d="" fill="#FFFFFF" transform="translate(0,0)"/>
<path d="" fill="#FFFFFF" transform="translate(0,0)"/>
<path d="" fill="#FFFFFF" transform="translate(0,0)"/>
<path d="" fill="#FFFFFF" transform="translate(0,0)"/>
<path d="" fill="#FFFFFF" transform="translate(0,0)"/>
<path d="" fill="#FFFFFF" transform="translate(0,0)"/>
<path d="" fill="#FFFFFF" transform="translate(0,0)"/>
<path d="" fill="#FFFFFF" transform="translate(0,0)"/>
<path d="" fill="#FFFFFF" transform="translate(0,0)"/>
<path d="" fill="#FFFFFF" transform="translate(0,0)"/>
<path d="" fill="#FFFFFF" transform="translate(0,0)"/>
<path d="" fill="#FFFFFF" transform="translate(0,0)"/>
<path d="" fill="#FFFFFF" transform="translate(0,0)"/>
<path d="" fill="#FFFFFF" transform="translate(0,0)"/>
<path d="" fill="#FFFFFF" transform="translate(0,0)"/>
<path d="" fill="#FFFFFF" transform="translate(0,0)"/>
<path d="" fill="#FFFFFF" transform="translate(0,0)"/>
<path d="" fill="#FFFFFF" transform="translate(0,0)"/>
<path d="" fill="#FFFFFF" transform="translate(0,0)"/>
<path d="" fill="#FFFFFF" transform="translate(0,0)"/>
<path d="" fill="#FFFFFF" transform="translate(0,0)"/>
<path d="" fill="#FFFFFF" transform="translate(0,0)"/>
<path d="" fill="#FFFFFF" transform="translate(0,0)"/>
<path d="" fill="#FFFFFF" transform="translate(0,0)"/>
<path d="" fill="#FFFFFF" transform="translate(0,0)"/>
<path d="" fill="#FFFFFF" transform="translate(0,0)"/>
<path d="" fill="#FFFFFF" transform="translate(0,0)"/>
<path d="" fill="#FFFFFF" transform="translate(0,0)"/>
<path d="" fill="#FFFFFF" transform="translate(0,0)"/>
<path d="" fill="#FFFFFF" transform="translate(0,0)"/>
<path d="" fill="#FFFFFF" transform="translate(0,0)"/>
<path d="" fill="#FFFFFF" transform="translate(0,0)"/>
<path d="" fill="#FFFFFF" transform="translate(0,0)"/>
<path d="" fill="#FFFFFF" transform="translate(0,0)"/>
<path d="" fill="#FFFFFF" transform="translate(0,0)"/>
<path d="" fill="#FFFFFF" transform="translate(0,0)"/>
<path d="" fill="#FFFFFF" transform="translate(0,0)"/>
<path d="" fill="#FFFFFF" transform="translate(0,0)"/>
<path d="" fill="#FFFFFF" transform="translate(0,0)"/>
<path d="" fill="#FFFFFF" transform="translate(0,0)"/>
<path d="" fill="#FFFFFF" transform="translate(0,0)"/>
<path d="" fill="#FFFFFF" transform="translate(0,0)"/>
<path d="" fill="#FFFFFF" transform="translate(0,0)"/>
<path d="" fill="#FFFFFF" transform="translate(0,0)"/>
<path d="" fill="#FFFFFF" transform="translate(0,0)"/>
<path d="" fill="#FFFFFF" transform="translate(0,0)"/>
<path d="" fill="#FFFFFF" transform="translate(0,0)"/>
<path d="" fill="#FFFFFF" transform="translate(0,0)"/>
<path d="" fill="#FFFFFF" transform="translate(0,0)"/>
<path d="" fill="#FFFFFF" transform="translate(0,0)"/>
<path d="" fill="#FFFFFF" transform="translate(0,0)"/>
<path d="" fill="#FFFFFF" transform="translate(0,0)"/>
<path d="" fill="#FFFFFF" transform="translate(0,0)"/>
<path d="" fill="#FFFFFF" transform="translate(0,0)"/>
<path d="" fill="#FFFFFF" transform="translate(0,0)"/>
<path d="" fill="#FFFFFF" transform="translate(0,0)"/>
<path d="" fill="#FFFFFF" transform="translate(0,0)"/>
<path d="" fill="#FFFFFF" transform="translate(0,0)"/>
<path d="" fill="#FFFFFF" transform="translate(0,0)"/>
<path d="" fill="#FFFFFF" transform="translate(0,0)"/>
<path d="" fill="#FFFFFF" transform="translate(0,0)"/>
<path d="" fill="#FFFFFF" transform="translate(0,0)"/>
<path d="" fill="#FFFFFF" transform="translate(0,0)"/>
<path d="" fill="#FFFFFF" transform="translate(0,0)"/>
<path d="" fill="#FFFFFF" transform="translate(0,0)"/>
<path d="" fill="#FFFFFF" transform="translate(0,0)"/>
<path d="" fill="#FFFFFF" transform="translate(0,0)"/>
<path d="" fill="#FFFFFF" transform="translate(0,0)"/>
<path d="" fill="#FFFFFF" transform="translate(0,0)"/>
<path d="" fill="#FFFFFF" transform="translate(0,0)"/>
<path d="" fill="#FFFFFF" transform="translate(0,0)"/>
<path d="" fill="#FFFFFF" transform="translate(0,0)"/>
<path d="" fill="#FFFFFF" transform="translate(0,0)"/>
<path d="" fill="#FFFFFF" transform="translate(0,0)"/>
<path d="" fill="#FFFFFF" transform="translate(0,0)"/>
<path d="" fill="#FFFFFF" transform="translate(0,0)"/>
<path d="" fill="#FFFFFF" transform="translate(0,0)"/>
<path d="" fill="#FFFFFF" transform="translate(0,0)"/>
<path d="" fill="#FFFFFF" transform="translate(0,0)"/>
<path d="" fill="#FFFFFF" transform="translate(0,0)"/>
<path d="" fill="#FFFFFF" transform="translate(0,0)"/>
<path d="" fill="#FFFFFF" transform="translate(0,0)"/>
<path d="" fill="#FFFFFF" transform="translate(0,0)"/>
<path d="" fill="#FFFFFF" transform="translate(0,0)"/>
<path d="" fill="#FFFFFF" transform="translate(0,0)"/>
<path d="" fill="#FFFFFF" transform="translate(0,0)"/>
<path d="" fill="#FFFFFF" transform="translate(0,0)"/>
<path d="" fill="#FFFFFF" transform="translate(0,0)"/>
<path d="" fill="#FFFFFF" transform="translate(0,0)"/>
<path d="" fill="#FFFFFF" transform="translate(0,0)"/>
<path d="" fill="#FFFFFF" transform="translate(0,0)"/>
<path d="" fill="#FFFFFF" transform="translate(0,0)"/>
<path d="" fill="#FFFFFF" transform="translate(0,0)"/>
<path d="" fill="#FFFFFF" transform="translate(0,0)"/>
<path d="" fill="#FFFFFF" transform="translate(0,0)"/>
<path d="" fill="#FFFFFF" transform="translate(0,0)"/>
<path d="" fill="#FFFFFF" transform="translate(0,0)"/>
<path d="" fill="#FFFFFF" transform="translate(0,0)"/>
<path d="" fill="#FFFFFF" transform="translate(0,0)"/>
<path d="" fill="#FFFFFF" transform="translate(0,0)"/>
<path d="" fill="#FFFFFF" transform="translate(0,0)"/>
<path d="" fill="#FFFFFF" transform="translate(0,0)"/>
<path d="" fill="#FFFFFF" transform="translate(0,0)"/>
<path d="" fill="#FFFFFF" transform="translate(0,0)"/>
<path d="" fill="#FFFFFF" transform="translate(0,0)"/>
<path d="" fill="#FFFFFF" transform="translate(0,0)"/>
<path d="" fill="#FFFFFF" transform="translate(0,0)"/>
<path d="" fill="#FFFFFF" transform="translate(0,0)"/>
<path d="" fill="#FFFFFF" transform="translate(0,0)"/>
<path d="" fill="#FFFFFF" transform="translate(0,0)"/>
<path d="" fill="#FFFFFF" transform="translate(0,0)"/>
</svg>
